<svg width="889" height="132" viewBox="0 0 889 132" fill="none" xmlns="http://www.w3.org/2000/svg">
<path d="M889 130.75H822.56C811.515 130.75 802.56 121.796 802.56 110.75V20.75C802.56 9.70431 793.606 0.75 782.56 0.75H566.705C555.659 0.75 546.705 9.7043 546.705 20.75V110.75C546.705 121.796 537.751 130.75 526.705 130.75H370.352C359.306 130.75 350.352 121.796 350.352 110.75V20.75C350.352 9.70431 341.397 0.75 330.352 0.75H135.031C123.986 0.75 115.031 9.7043 115.031 20.75V110.75C115.031 121.796 106.077 130.75 95.0314 130.75H0" stroke="url(#paint0_linear_5335_351)" stroke-opacity="0.5" stroke-width="1.5"/>
<defs>
<linearGradient id="paint0_linear_5335_351" x1="531" y1="65.75" x2="677" y2="65.75" gradientUnits="userSpaceOnUse">
<stop stop-color="#9EBAFF"/>
<stop offset="1" stop-color="#5F7099" stop-opacity="0"/>
</linearGradient>
</defs>
</svg>
