<svg width="186" height="447" viewBox="0 0 186 447" fill="none" xmlns="http://www.w3.org/2000/svg">
<path d="M184.75 446.077V422.704C184.75 411.658 175.796 402.704 164.75 402.704L20.75 402.704C9.7043 402.704 0.749996 393.75 0.749996 382.704V294.322C0.749996 283.277 9.7043 274.322 20.75 274.322L164.75 274.322C175.796 274.322 184.75 265.368 184.75 254.322V195.797C184.75 184.752 175.796 175.797 164.75 175.797L20.75 175.797C9.7043 175.797 0.749996 166.843 0.749996 155.797V77.7198C0.749996 66.6741 9.7043 57.7198 20.75 57.7198L164.75 57.7198C175.796 57.7198 184.75 48.7655 184.75 37.7198V0" stroke="url(#paint0_linear_5335_399)" stroke-opacity="0.5" stroke-width="1.5"/>
<defs>
<linearGradient id="paint0_linear_5335_399" x1="92.5156" y1="30.1875" x2="92.75" y2="-8.99666e-07" gradientUnits="userSpaceOnUse">
<stop stop-color="#9EBAFF"/>
<stop offset="1" stop-color="#5F7099" stop-opacity="0"/>
</linearGradient>
</defs>
</svg>
